<?xml version="1.0" encoding="utf-8"?>
<!-- Generator: Adobe Illustrator 19.0.1, SVG Export Plug-In . SVG Version: 6.00 Build 0)  -->
<svg version="1.1" id="Слой_1" xmlns="http://www.w3.org/2000/svg" xmlns:xlink="http://www.w3.org/1999/xlink" x="0px" y="0px"
	 viewBox="0 0 135 397" style="enable-background:new 0 0 135 397;" xml:space="preserve">
<style type="text/css">
	.st0{fill:url(#Левая_колонна_1_);}
</style>
<linearGradient id="Левая_колонна_1_" gradientUnits="userSpaceOnUse" x1="67.5" y1="397" x2="67.5" y2="-6.678754e-006">
	<stop  offset="4.926108e-003" style="stop-color:#5A5550"/>
	<stop  offset="0.4926" style="stop-color:#877868"/>
	<stop  offset="0.9951" style="stop-color:#968372"/>
</linearGradient>
<path id="Левая_колонна" class="st0" d="M67.5,0c0.3,0.6,0.6,1.2,0.9,1.8h-1.9C66.9,1.2,67.2,0.6,67.5,0H0
	c5.2,1.1,14.6,4,23.4,11.6c1.5,1.3,8,7.1,13.1,17.1c3.1,6.2,4.6,11.9,5.4,16.3v7.8h5.9c0.1,1.6,1.4,3.1,3.6,4.4h-4.7v5.2h10.1
	c-1.9,18.9-4.3,42.3-6.8,69.1c-9,96.9-10.3,130.8,4.5,140.5c0.9,0.6,1.9,1.1,3.1,1.6c-7.5,3.7-12.6,11.4-12.6,20.3
	c0,6.8,3,12.9,7.8,17.1H41.9V397h51.3v-86.2H82.3c4.8-4.1,7.8-10.2,7.8-17.1c0-8.9-5.2-16.6-12.6-20.3c1.2-0.4,2.2-1,3.1-1.6
	c14.8-9.6,13.6-43.6,4.5-140.5c-2.5-26.8-4.8-50.2-6.8-69.1h10.1v-5.2h-4.7c2.2-1.2,3.5-2.7,3.6-4.4h5.9V45
	c0.7-4.3,2.2-10.1,5.4-16.3c5-10,11.6-15.8,13.1-17.1C120.4,4,129.8,1.1,135,0H67.5z"/>
</svg>
