<?xml version="1.0" encoding="utf-8"?>
<!-- Generator: Adobe Illustrator 19.0.1, SVG Export Plug-In . SVG Version: 6.00 Build 0)  -->
<svg version="1.1" id="Слой_1" xmlns="http://www.w3.org/2000/svg" xmlns:xlink="http://www.w3.org/1999/xlink" x="0px" y="0px"
	 viewBox="0 0 106 147" style="enable-background:new 0 0 106 147;" xml:space="preserve">
<g id="logo">
	<g id="neck">
		<linearGradient id="left_3_" gradientUnits="userSpaceOnUse" x1="-2.004278e-006" y1="99.3428" x2="53.1432" y2="99.3428">
			<stop  offset="0" style="stop-color:#FFFFFF"/>
			<stop  offset="0.6207" style="stop-color:#766858"/>
		</linearGradient>
		<path id="left" style="fill:url(#left_3_);" d="M52.9,59.9l0.3,78.8c-9-3.1-24.9-9.9-38.8-25C7.6,106.4,3.1,99,0,93
			c3-4.3,6.9-9,12-13.5C27,66.1,43.6,61.6,52.9,59.9z"/>
		
			<linearGradient id="right_3_" gradientUnits="userSpaceOnUse" x1="4468.7021" y1="99.3428" x2="4521.8452" y2="99.3428" gradientTransform="matrix(-1 0 0 1 4574.7021 0)">
			<stop  offset="0" style="stop-color:#FFFFFF"/>
			<stop  offset="0.6207" style="stop-color:#766858"/>
		</linearGradient>
		<path id="right" style="fill:url(#right_3_);" d="M53.1,59.9l-0.3,78.8c9-3.1,24.9-9.9,38.8-25C98.4,106.4,102.9,99,106,93
			c-3-4.3-6.9-9-12-13.5C79,66.1,62.4,61.6,53.1,59.9z"/>
	</g>
	<path id="cord" style="fill:#43382C;" d="M20.1,130c-0.8,0-2-1-3.9-6.8c-3.9-11.6-5.4-26.4-4.6-43.8l0.9,0
		c-0.8,17.3,0.7,31.9,4.6,43.5c2.1,6.2,3,6.2,3.1,6.2c0.2,0,0.8-0.5,1.3-4c0.6-3.7,1.1-10.1,1.6-19.4c0.5-11.1,0.7-22.4,0.7-33.8
		l0.9,0c0.1,11.4-0.1,22.8-0.7,33.9c-1,21.9-2.3,23.9-3.7,24.2C20.2,130,20.1,130,20.1,130z"/>
	<g id="book_1_">
		<path id="book" style="fill:#593D33;" d="M88.6,94.8H16.8c-1.1,0-2,0.9-2,2V147h75.8V96.8C90.6,95.7,89.7,94.8,88.6,94.8z"/>
		<g id="spine">
			<rect x="14.8" y="135.6" style="fill:#886A55;" width="75.8" height="11.4"/>
			<rect id="clamping_1_" x="14.8" y="134.6" style="fill:#3E2822;" width="75.8" height="1"/>
			<rect id="shadow" x="14.8" y="143.5" style="opacity:0.37;fill:#3E2822;" width="75.8" height="3.5"/>
			<rect id="stripe_x5F_0" x="18.4" y="135.6" style="fill:#644736;" width="2.4" height="11.4"/>
			<rect id="stipe_x5F_1" x="24.4" y="135.6" style="fill:#644736;" width="2.4" height="11.4"/>
			<rect id="stipe_x5F_2" x="30.4" y="135.6" style="fill:#644736;" width="2.4" height="11.4"/>
			<rect id="stipe_x5F_3" x="36.4" y="135.6" style="fill:#644736;" width="2.4" height="11.4"/>
			<rect id="stipe_x5F_4" x="42.4" y="135.6" style="fill:#644736;" width="2.4" height="11.4"/>
			<rect id="stipe_x5F_5" x="48.4" y="135.5" style="fill:#644736;" width="2.4" height="11.4"/>
			<rect id="stipe_x5F_6" x="54.4" y="135.5" style="fill:#644736;" width="2.4" height="11.4"/>
			<rect id="stipe_x5F_7" x="60.4" y="135.5" style="fill:#644736;" width="2.4" height="11.4"/>
			<rect id="stipe_x5F_8" x="66.4" y="135.6" style="fill:#644736;" width="2.4" height="11.4"/>
			<rect id="stipe_x5F_9" x="72.4" y="135.6" style="fill:#644736;" width="2.4" height="11.4"/>
			<rect id="stipe_x5F_10" x="78.4" y="135.6" style="fill:#644736;" width="2.4" height="11.4"/>
			<rect id="stipe_x5F_11" x="84.4" y="135.6" style="fill:#644736;" width="2.4" height="11.4"/>
		</g>
		<g id="title">
			<rect id="text_x5F_1" x="31.2" y="105.2" style="opacity:0.52;fill:#AC814F;" width="2.8" height="21.7"/>
			<rect id="text_x5F_2" x="40.3" y="100.6" style="opacity:0.52;fill:#AC814F;" width="3.4" height="29.5"/>
			<g id="spaces" style="opacity:0.69;">
				<rect x="30.1" y="122.5" style="fill:#593D33;" width="5.5" height="1"/>
				<rect x="30.1" y="114.8" style="fill:#593D33;" width="5.5" height="1.7"/>
				<rect x="30.8" y="109.7" style="fill:#593D33;" width="4" height="0.8"/>
				<rect x="40.3" y="126.2" style="fill:#593D33;" width="4" height="0.7"/>
				<rect x="39" y="116.4" style="fill:#593D33;" width="5.3" height="2"/>
			</g>
		</g>
	</g>
	<path id="shadow_aunder_the_head" style="opacity:0.6;fill:#3E2822;" d="M30.8,94.8c1.1,0.4,2.1,0.8,3.1,1.1c5,9.4,9,17,12.4,23.2
		c0.3,0.4,1.3,1.5,3.1,2.1c1.4,0.5,2.7,0.5,3.4,0.4c0.7,0.1,2,0.1,3.4-0.4c1.8-0.6,2.7-1.7,3.1-2.1c3.3-6.3,7.4-13.8,12.4-23.2
		c1-0.3,2-0.7,3.1-1.1H30.8z"/>
	<g id="fox">
		<g id="left_ear">
			<path id="inside_1_" style="fill:#D7D0CA;" d="M41.1,40.9c0-1.2-3.6-9.9-3.6-9.9C29.3,20.7,21,10.3,12.7,0
				C9.9,6.6,6.1,18,6.2,32.5C6.2,44.3,8.8,53.8,11,59.9C21.1,53.6,31.1,47.2,41.1,40.9z"/>
			<path id="outside_1_" style="fill:#766858;" d="M45.4,38.6L37.5,31L12.7,0c0.5,9.6,2.1,21.7,6.3,35.1c2.5,7.9,5.4,14.9,8.4,20.7
				C33.4,50.1,39.4,44.3,45.4,38.6z"/>
		</g>
		<g id="right_ear">
			<path id="inside" style="fill:#D7D0CA;" d="M64.5,43.4c0-1.2,3.6-9.9,3.6-9.9c8.3-10.3,16.5-20.7,24.8-31
				c2.8,6.6,6.7,18,6.6,32.5c-0.1,11.8-2.6,21.2-4.9,27.4C84.6,56.1,74.5,49.8,64.5,43.4z"/>
			<path id="outside" style="fill:#766858;" d="M60.2,41.1l7.9-7.6l24.8-31c-0.5,9.6-2.1,21.7-6.3,35.1c-2.5,7.9-5.4,14.9-8.4,20.7
				C72.2,52.6,66.2,46.9,60.2,41.1z"/>
		</g>
		<g id="head">
			<defs>
				<path id="mask" d="M98.6,65c-6.3-6.2-6.8-11.1-10.6-17.3C87,46.2,80.3,35.5,67.9,31c-6.1-2.2-11.6-2.2-15.2-1.9
					c-3.6-0.3-9.1-0.3-15.2,1.9c-12.4,4.5-19.1,15.2-20.1,16.7c-3.8,6.2-4.3,11-10.6,17.3c-2,2-3.9,3.4-5.2,4.3
					C5.8,74.4,12.2,81.1,21.6,87c6,3.7,11.6,6.2,16.3,7.8c2.6,7.5,5.3,15,7.9,22.6c0.3,0.5,1.3,2,3.2,2.9c1.5,0.7,3,0.7,3.7,0.6
					c0.8,0.1,2.2,0.1,3.7-0.6c1.9-0.9,2.8-2.3,3.2-2.9c2.6-7.5,5.3-15,7.9-22.6c4.7-1.6,10.3-4,16.3-7.8
					c9.4-5.9,15.8-12.6,19.9-17.7C102.5,68.4,100.6,67,98.6,65z"/>
			</defs>
			<clipPath id="mask_1_">
				<use xlink:href="#mask"  style="overflow:visible;"/>
			</clipPath>
			<linearGradient id="base_1_" gradientUnits="userSpaceOnUse" x1="52.7135" y1="120.8847" x2="52.7135" y2="28.9619">
				<stop  offset="0" style="stop-color:#76654D"/>
				<stop  offset="0.266" style="stop-color:#DA9950"/>
			</linearGradient>
			<path id="base" style="clip-path:url(#mask_1_);fill:url(#base_1_);" d="M98.6,65c-6.3-6.2-6.8-11.1-10.6-17.3
				C87,46.2,80.3,35.5,67.9,31c-6.1-2.2-11.6-2.2-15.2-1.9c-3.6-0.3-9.1-0.3-15.2,1.9c-12.4,4.5-19.1,15.2-20.1,16.7
				c-3.8,6.2-4.3,11-10.6,17.3c-2,2-3.9,3.4-5.2,4.3C5.8,74.4,12.2,81.1,21.6,87c6,3.7,11.6,6.2,16.3,7.8c2.6,7.5,5.3,15,7.9,22.6
				c0.3,0.5,1.3,2,3.2,2.9c1.5,0.7,3,0.7,3.7,0.6c0.8,0.1,2.2,0.1,3.7-0.6c1.9-0.9,2.8-2.3,3.2-2.9c2.6-7.5,5.3-15,7.9-22.6
				c4.7-1.6,10.3-4,16.3-7.8c9.4-5.9,15.8-12.6,19.9-17.7C102.5,68.4,100.6,67,98.6,65z"/>
			<linearGradient id="right_4_" gradientUnits="userSpaceOnUse" x1="85.159" y1="117.3548" x2="85.159" y2="43.2095">
				<stop  offset="0.2365" style="stop-color:#D7D0CA"/>
				<stop  offset="0.8177" style="stop-color:#DA9950"/>
			</linearGradient>
			<path id="right_2_" style="clip-path:url(#mask_1_);fill:url(#right_4_);" d="M59.6,117.4l51.1-47.3c-8.7-9-17.4-17.9-26-26.9
				c-0.2,3.1-1.2,10.5-6.6,17.8c-5.7,7.7-12.9,10.8-15.8,11.8c-0.8,5.3-0.9,9.7-0.9,12.7c0.1,9.3,1.7,13.2,0.9,20.7
				C61.8,111.1,60.5,114.9,59.6,117.4z"/>
			<linearGradient id="left_4_" gradientUnits="userSpaceOnUse" x1="20.0744" y1="116.779" x2="20.0744" y2="42.6338">
				<stop  offset="0.2365" style="stop-color:#D7D0CA"/>
				<stop  offset="0.8177" style="stop-color:#DA9950"/>
			</linearGradient>
			<path id="left_2_" style="clip-path:url(#mask_1_);fill:url(#left_4_);" d="M43.8,84.9c0-3-0.1-7.3-0.9-12.7
				c-2.9-1-10.1-4.1-15.8-11.8c-5.4-7.3-6.4-14.7-6.6-17.8c-8.7,9-17.4,17.9-26,26.9l51.1,47.3c-0.9-2.4-2.2-6.3-2.7-11.1
				C42.1,98.1,43.7,94.2,43.8,84.9z"/>
		</g>
		<path id="nose" style="fill:#43382C;" d="M57.5,113.8c-0.2-0.1-0.7-0.2-2.9,0.1c-0.7,0.1-1.2,0.2-1.6,0.3
			c-0.4-0.1-0.9-0.2-1.6-0.3c-2.1-0.3-2.6-0.1-2.9-0.1c-0.4,0.1-1,0.4-1.7,1.2c0,0.9,0.2,1.9,0.7,2.9c0.5,0.8,0.7,0.7,1.9,2
			c1.1,1.2,6.1,1.2,7.1,0c1.2-1.3,1.4-1.2,1.9-2c0.6-0.9,0.7-2,0.7-2.9C58.5,114.2,57.9,113.9,57.5,113.8z"/>
		<g id="eyes">
			<path id="right_1_" style="fill:#5C4F40;" d="M63.7,81.5c0.3-1.9,0.1-2.7,0.3-4.7c0-0.1,0.1-1,0.5-2.1c0-0.1,0.1-0.2,0.1-0.2
				c0.1-0.3,0.4-0.7,1.2-1.5c2.1-2,4.7-3.3,4.7-3.3c2.4-1.3,3-1.3,5.2-2.4c1.9-1,3.3-1.9,4.3-2.5c-0.2,1-0.5,2.6-1.5,4.1
				c-1.7,2.8-3.8,3.3-6.9,5.6c-5.3,4-7.5,8.9-8,8.6C63.3,83,63.5,82.7,63.7,81.5z"/>
			<path id="left_1_" style="fill:#5C4F40;" d="M42.1,81.5c-0.3-1.9-0.1-2.7-0.3-4.7c0-0.1-0.1-1-0.5-2.1c0-0.1-0.1-0.2-0.1-0.2
				c-0.1-0.3-0.4-0.7-1.2-1.5c-2.1-2-4.7-3.3-4.7-3.3c-2.4-1.3-3-1.3-5.2-2.4c-1.9-1-3.3-1.9-4.3-2.5c0.2,1,0.5,2.6,1.5,4.1
				c1.7,2.8,3.8,3.3,6.9,5.6c5.3,4,7.5,8.9,8,8.6C42.5,83,42.3,82.7,42.1,81.5z"/>
		</g>
	</g>
	<path id="up_of_cord" style="fill:#43382C;" d="M24.3,94.8l-0.9,0c0-2.9,0.1-5.9,0.2-8.8c0.1-4.6,0.3-9.4,0.1-14l0.9,0
		c0.2,4.6,0.1,9.5-0.1,14.1C24.4,88.9,24.3,91.9,24.3,94.8z"/>
	<g id="monocle">
		<ellipse id="glass" style="opacity:0.62;fill:#E6E5E4;" cx="35.6" cy="72.9" rx="10.7" ry="12.5"/>
		<path id="bezel" style="fill:#E6E5E4;" d="M35.6,86.4c-6.4,0-11.7-6.1-11.7-13.5s5.2-13.5,11.7-13.5s11.7,6.1,11.7,13.5
			S42,86.4,35.6,86.4z M35.6,61.5c-5.3,0-9.7,5.2-9.7,11.5s4.4,11.5,9.7,11.5s9.7-5.2,9.7-11.5S40.9,61.5,35.6,61.5z"/>
	</g>
	<rect id="clamping" x="23" y="71.9" style="fill:#5C4F40;" width="1.9" height="3"/>
</g>
</svg>
